<?xml version="1.0" encoding="UTF-8"?>
<svg version="1.1" xmlns="http://www.w3.org/2000/svg" width="200" height="200">
<path d="M0 0 C66 0 132 0 200 0 C200 66 200 132 200 200 C134 200 68 200 0 200 C0 134 0 68 0 0 Z " fill="#11121A" transform="translate(0,0)"/>
<path d="M0 0 C3 1 3 1 4.66015625 3.17578125 C7.77788217 6.93891287 11.447211 9.40817769 15.4375 12.1875 C17.05438583 13.33583226 18.67026361 14.48558516 20.28515625 15.63671875 C21.08195801 16.20310059 21.87875977 16.76948242 22.69970703 17.35302734 C25.96131369 19.6882851 29.18126283 22.07294721 32.375 24.5 C33.37273437 25.2528125 34.37046875 26.005625 35.3984375 26.78125 C38.9534797 29.81317789 41.51288101 32.53864302 43 37 C43.12781786 39.67394964 43.04391871 42.32095857 43 45 C43.77085938 44.4225 44.54171875 43.845 45.3359375 43.25 C46.33882813 42.5075 47.34171875 41.765 48.375 41 C49.37273437 40.2575 50.37046875 39.515 51.3984375 38.75 C54 37 54 37 56 37 C56.12375 36.443125 56.2475 35.88625 56.375 35.3125 C57.25541518 32.05496384 58.49201775 29.0159645 60 26 C62.5 25 62.5 25 65 24 C65.33 23.34 65.66 22.68 66 22 C66.99 21.67 67.98 21.34 69 21 C68.505 20.46375 68.01 19.9275 67.5 19.375 C65.62510456 16.40641555 65.76498575 14.44687573 66 11 C66.66 10.67 67.32 10.34 68 10 C68.99 11.98 68.99 11.98 70 14 C70.33 12.68 70.66 11.36 71 10 C71.66 10 72.32 10 73 10 C74.93905947 12.66620678 76.67634737 15.16775037 77.875 18.25 C79.59495946 20.92549249 82.02966592 21.06813048 85 22 C87.875 23.8125 87.875 23.8125 90 26 C90.1875 28.5625 90.1875 28.5625 90 31 C90.99 32.485 90.99 32.485 92 34 C91.54716981 40.45283019 91.54716981 40.45283019 89 43 C88.01 42.67 87.02 42.34 86 42 C85.3125 39.9375 85.3125 39.9375 85 38 C84.67 38.99 84.34 39.98 84 41 C83.01 41.99 83.01 41.99 82 43 C81.79375 42.401875 81.5875 41.80375 81.375 41.1875 C79.49073918 38.18981233 77.18867916 37.38638224 74 36 C73.96261719 36.86882813 73.92523438 37.73765625 73.88671875 38.6328125 C73.18766067 50.88688946 73.18766067 50.88688946 70 55 C68.10106309 56.3552066 66.18951958 57.52796305 64.1328125 58.62890625 C57.12328218 63.13503288 51.53860611 70.7804858 46 77 C45.39800781 77.66644531 44.79601562 78.33289063 44.17578125 79.01953125 C41.02247121 82.87759253 40.35817718 86.0354752 40.62890625 90.859375 C41.16063721 93.92662308 42.44540973 96.32610474 44 99 C44.6875 101.375 44.6875 101.375 45 103 C43.02 103 41.04 103 39 103 C38.74605469 102.34773438 38.49210937 101.69546875 38.23046875 101.0234375 C35.99393978 95.33246566 35.99393978 95.33246566 33.25 89.875 C31.57669271 86.02639324 31.78426633 83.17085088 32 79 C31.39671875 78.93941406 30.7934375 78.87882812 30.171875 78.81640625 C29.37265625 78.73261719 28.5734375 78.64882812 27.75 78.5625 C26.56664063 78.44068359 26.56664063 78.44068359 25.359375 78.31640625 C23 78 23 78 21.125 77.4921875 C15.29841666 76.14264798 8.13054172 75.627222 2.5859375 78.05859375 C0.52601121 79.57276267 -1.21364814 81.17139035 -3 83 C-3.73347656 83.69609375 -4.46695313 84.3921875 -5.22265625 85.109375 C-10.11717476 89.35380528 -10.11717476 89.35380528 -12.09765625 95.1640625 C-12.08605469 95.97617188 -12.07445313 96.78828125 -12.0625 97.625 C-12.05347656 98.44226563 -12.04445313 99.25953125 -12.03515625 100.1015625 C-12.02355469 100.72804688 -12.01195313 101.35453125 -12 102 C-14.4375 101.625 -14.4375 101.625 -17 101 C-18.56516118 97.86967764 -18.540337 94.40926916 -18 91 C-17.00308705 89.66435696 -16.00276409 88.33125578 -15 87 C-14.03329162 84.20922242 -14.03329162 84.20922242 -13.375 81.1875 C-13.12878906 80.13433594 -12.88257812 79.08117187 -12.62890625 77.99609375 C-11.92961647 74.6646946 -11.38420024 71.38096214 -11 68 C-12.4540625 68.495 -12.4540625 68.495 -13.9375 69 C-18.27999734 70.20919133 -22.52958557 70.82849379 -27 70 C-30.35352755 67.30081929 -30.90377072 65.68563364 -31.5 61.4375 C-31 58 -31 58 -29.6875 55.625 C-25.43572302 53.0541581 -20.88579229 53.1684756 -16 53 C-15.67 51.68 -15.34 50.36 -15 49 C-16.78105319 48.25867837 -16.78105319 48.25867837 -19 48 C-21.21817536 48.96755262 -21.21817536 48.96755262 -23.375 50.4375 C-26.09148371 52.01137109 -28.11930867 53.03041201 -31.1875 53.8125 C-35.10611939 52.6804544 -36.55097341 50.55294757 -38.80859375 47.24609375 C-40.49182511 44.07278873 -40.85124691 41.57007405 -41 38 C-40.67 38 -40.34 38 -40 38 C-39.67 36.35 -39.34 34.7 -39 33 C-37.66104368 34.66215268 -36.32869858 36.32963607 -35 38 C-34.1028125 38.9590625 -34.1028125 38.9590625 -33.1875 39.9375 C-31.50031533 42.86787337 -32.20328933 44.81315733 -33 48 C-29.22037242 47.62203724 -26.34229016 47.17463784 -22.9375 45.4375 C-19.61695124 43.81255061 -17.64903207 43.51346239 -14 44 C-12.125 45 -12.125 45 -11 47 C-10.47191528 50.52056482 -10.09548925 53.67802275 -12.16796875 56.70703125 C-14.67121459 58.47371435 -16.65056821 58.50885695 -19.6875 58.6875 C-20.68136719 58.75324219 -21.67523438 58.81898437 -22.69921875 58.88671875 C-23.83810547 58.94279297 -23.83810547 58.94279297 -25 59 C-25.38218767 60.65614657 -25.71395102 62.32457024 -26 64 C-24.88899271 65.31847139 -24.88899271 65.31847139 -22.08984375 65.33203125 C-16.78913485 65.25227052 -12.30145882 62.85994381 -7.5625 60.6875 C-5.75204152 59.87725199 -3.94085338 59.06863221 -2.12890625 58.26171875 C-1.26668457 57.8754834 -0.40446289 57.48924805 0.48388672 57.09130859 C3.94462418 55.59029011 7.45282226 54.28196248 11 53 C10.236875 52.4225 9.47375 51.845 8.6875 51.25 C4.40740741 47.66666667 4.40740741 47.66666667 3 45 C2.75940485 42.28022879 2.8629692 39.74061608 3 37 C8.32286633 38.44418854 12.23223248 40.94689749 16.6875 44.0625 C18.00175957 44.97315799 19.31808838 45.88083875 20.63671875 46.78515625 C21.21123779 47.18613525 21.78575684 47.58711426 22.37768555 48.00024414 C24.14738322 49.17607071 24.14738322 49.17607071 27 50 C20.42911678 44.4121623 13.84327009 39.41347347 6.53125 34.82421875 C4.05210337 33.0375498 2.54070313 31.624331 1 29 C0.57575758 22.84848485 0.57575758 22.84848485 2 20 C5.26384419 21.46872988 7.76029136 23.33277711 10.5 25.625 C14.27749535 28.71517002 18.13638918 31.43777071 22.25 34.0625 C26.86606256 37.10220099 31.28947271 40.05386688 34 45 C34.375 48.3125 34.375 48.3125 34 51 C34 51.66 34 52.32 34 53 C35.58324757 49.83350487 35.64374236 46.42541806 35 43 C31.95414116 37.03176309 27.20580546 33.8599552 21.8125 30.0625 C20.17229388 28.88795113 18.53296818 27.7121718 16.89453125 26.53515625 C16.08765869 25.95660889 15.28078613 25.37806152 14.44946289 24.78198242 C1.5250695 15.37949589 1.5250695 15.37949589 -1 10 C-1.44607475 6.50356115 -1.61228372 3.22456743 0 0 Z " fill="#F8F8F9" transform="translate(75,25)"/>
<path d="M0 0 C3.50712695 -0.63509341 6.5134933 -0.82575159 10 0 C13.06138861 2.90948765 14.953387 6.33271884 17 10 C17.97283413 11.54567048 18.95128762 13.08783098 19.9375 14.625 C20.9584375 16.295625 20.9584375 16.295625 22 18 C22.33 13.05 22.66 8.1 23 3 C22.01 3 21.02 3 20 3 C20 2.01 20 1.02 20 0 C23.63 0 27.26 0 31 0 C31 0.99 31 1.98 31 3 C30.01 3.495 30.01 3.495 29 4 C28.67 12.91 28.34 21.82 28 31 C26.02 31 24.04 31 22 31 C20.05859375 28.875 20.05859375 28.875 18.4375 26 C17.56738281 24.50533203 17.56738281 24.50533203 16.6796875 22.98046875 C16.12539063 21.99691406 15.57109375 21.01335937 15 20 C14.02950921 18.43209654 13.05157066 16.8687496 12.0625 15.3125 C11.381875 14.219375 10.70125 13.12625 10 12 C9.67 16.95 9.34 21.9 9 27 C9.99 27 10.98 27 12 27 C12 27.99 12 28.98 12 30 C8.37 30 4.74 30 1 30 C1 29.01 1 28.02 1 27 C1.66 27 2.32 27 3 27 C3 19.41 3 11.82 3 4 C2.01 3.67 1.02 3.34 0 3 C0 2.01 0 1.02 0 0 Z " fill="#958C72" transform="translate(19,145)"/>
<path d="M0 0 C2.8100346 1.79363911 4.50940468 3.01880935 6 6 C6.57717357 10.73093088 6.43416625 14.14717343 4.25 18.4375 C1.20820094 21.90177115 -0.38279417 22.82795683 -4.9375 23.3125 C-8.45778025 22.95328773 -10.21797817 22.16379476 -13 20 C-15.35942213 16.96645726 -15.35917394 13.7365388 -15.25390625 9.9609375 C-14.76229865 6.16421417 -12.84475078 3.90732492 -10.3125 1.1875 C-6.91635199 -0.5564679 -3.6895784 -0.68081506 0 0 Z " fill="#938B71" transform="translate(67,153)"/>
<path d="M0 0 C7.26 0 14.52 0 22 0 C21.67 2.97 21.34 5.94 21 9 C19.68 9 18.36 9 17 9 C16.67 7.68 16.34 6.36 16 5 C13.69 4.67 11.38 4.34 9 4 C9 7.3 9 10.6 9 14 C11.97 14 14.94 14 18 14 C18 15.32 18 16.64 18 18 C15.03 18 12.06 18 9 18 C9 20.64 9 23.28 9 26 C10.65 26 12.3 26 14 26 C14 27.32 14 28.64 14 30 C9.05 30.33 4.1 30.66 -1 31 C-0.67 29.68 -0.34 28.36 0 27 C0.66 26.67 1.32 26.34 2 26 C2.33 18.41 2.66 10.82 3 3 C2.01 3 1.02 3 0 3 C0 2.01 0 1.02 0 0 Z " fill="#948B72" transform="translate(109,145)"/>
<path d="M0 0 C2.50123463 2.40118524 4.77348471 4.9113681 7 7.5625 C10.1078342 11.16705068 13.51643579 14.33752971 17.0625 17.5 C28.3462453 27.66585103 28.3462453 27.66585103 29.625 34.1875 C28.85759661 37.64081525 27.40234682 39.4475065 25 42 C24.86464844 41.443125 24.72929688 40.88625 24.58984375 40.3125 C21.67850086 29.99205095 14.70948498 24.48948833 6.453125 18.078125 C3.01177599 15.16284208 0.62921167 12.53032399 0 8 C-0.07196098 5.32716364 -0.04458432 2.67505906 0 0 Z " fill="#F4F4F4" transform="translate(96,24)"/>
<path d="M0 0 C3.96 0 7.92 0 12 0 C12 0.99 12 1.98 12 3 C11.34 3 10.68 3 10 3 C11.3089572 6.12197478 11.3089572 6.12197478 14 8 C14.66 6.35 15.32 4.7 16 3 C15.34 3 14.68 3 14 3 C14.33 2.01 14.66 1.02 15 0 C17.64 0 20.28 0 23 0 C22.40716379 3.39192363 21.23256811 5.2107757 18.9375 7.75 C18.38964844 8.36359375 17.84179688 8.9771875 17.27734375 9.609375 C16.85582031 10.06828125 16.43429688 10.5271875 16 11 C16.598125 12.11375 17.19625 13.2275 17.8125 14.375 C18.14894531 15.00148437 18.48539063 15.62796875 18.83203125 16.2734375 C20.04763493 18.30502365 20.04763493 18.30502365 23 20 C23 20.66 23 21.32 23 22 C19.37 22 15.74 22 12 22 C12 21.34 12 20.68 12 20 C12.66 20 13.32 20 14 20 C12.68 18.35 11.36 16.7 10 15 C7.71271266 16.83883881 7.71271266 16.83883881 7.875 19.625 C7.936875 20.800625 7.936875 20.800625 8 22 C5.36 22 2.72 22 0 22 C1.66751148 18.05860922 4.22710649 15.2107188 7 12 C5.62897231 7.51300029 3.61556402 5.85439265 0 3 C0 2.01 0 1.02 0 0 Z " fill="#8F876F" transform="translate(158,153)"/>
<path d="M0 0 C3.3 0 6.6 0 10 0 C9.67 10.23 9.34 20.46 9 31 C9.99 31 10.98 31 12 31 C12 31.99 12 32.98 12 34 C8.37 34 4.74 34 1 34 C1 33.01 1 32.02 1 31 C1.66 31 2.32 31 3 31 C2.67 22.09 2.34 13.18 2 4 C1.34 3.67 0.68 3.34 0 3 C0 2.01 0 1.02 0 0 Z " fill="#90876F" transform="translate(132,141)"/>
<path d="M0 0 C0.33 0.99 0.66 1.98 1 3 C1.4125 2.505 1.825 2.01 2.25 1.5 C4 0 4 0 8 0 C8 2.97 8 5.94 8 9 C6.68 9 5.36 9 4 9 C4 8.01 4 7.02 4 6 C3.01 6.33 2.02 6.66 1 7 C0.67 10.96 0.34 14.92 0 19 C1.32 19.33 2.64 19.66 4 20 C3.67 20.66 3.34 21.32 3 22 C-0.63 22 -4.26 22 -8 22 C-8 21.01 -8 20.02 -8 19 C-7.34 19 -6.68 19 -6 19 C-6.11341637 16.68690295 -6.24103807 14.37449815 -6.375 12.0625 C-6.44460937 10.77472656 -6.51421875 9.48695313 -6.5859375 8.16015625 C-6.72257812 7.11730469 -6.85921875 6.07445312 -7 5 C-7.66 4.67 -8.32 4.34 -9 4 C-9 3.01 -9 2.02 -9 1 C-5.846632 0.29925156 -3.27275026 0 0 0 Z " fill="#938B71" transform="translate(99,153)"/>
<path d="M0 0 C0.03738281 0.89460938 0.07476562 1.78921875 0.11328125 2.7109375 C0.41259161 15.7481284 0.41259161 15.7481284 6.6875 26.5 C7.450625 26.995 8.21375 27.49 9 28 C9 28.66 9 29.32 9 30 C5.625 30.625 5.625 30.625 2 31 C-0.35537197 28.64462803 -1.04324103 26.31413308 -2.13671875 23.21875 C-3.0033019 20.99151367 -4.04599155 18.97247136 -5.1875 16.875 C-6.94779401 13.36126136 -7.84559902 10.97431539 -7 7 C-2.21501014 0 -2.21501014 0 0 0 Z " fill="#EFEFF0" transform="translate(129,96)"/>
<path d="M0 0 C-0.33 6.27 -0.66 12.54 -1 19 C-0.01 19 0.98 19 2 19 C2 19.99 2 20.98 2 22 C-1.63 22 -5.26 22 -9 22 C-9 21.01 -9 20.02 -9 19 C-8.34 19 -7.68 19 -7 19 C-7 14.05 -7 9.1 -7 4 C-7.99 4 -8.98 4 -10 4 C-9.67 3.01 -9.34 2.02 -9 1 C-5.846632 0.29925156 -3.27275026 0 0 0 Z " fill="#8F876E" transform="translate(155,153)"/>
<path d="M0 0 C0 6.27 0 12.54 0 19 C0.66 19 1.32 19 2 19 C2 19.99 2 20.98 2 22 C-1.3 22 -4.6 22 -8 22 C-8 21.01 -8 20.02 -8 19 C-7.34 19 -6.68 19 -6 19 C-6.11341637 16.68690295 -6.24103807 14.37449815 -6.375 12.0625 C-6.44460937 10.77472656 -6.51421875 9.48695313 -6.5859375 8.16015625 C-6.72257812 7.11730469 -6.85921875 6.07445312 -7 5 C-7.66 4.67 -8.32 4.34 -9 4 C-9 3.01 -9 2.02 -9 1 C-5.94152152 0.45627049 -3.11227195 0 0 0 Z " fill="#928A71" transform="translate(85,153)"/>
<path d="M0 0 C-0.165 0.7425 -0.33 1.485 -0.5 2.25 C-0.94435921 5.58269411 -1.16791371 8.76767076 -1.25 12.125 C-1.27578125 13.13820313 -1.3015625 14.15140625 -1.328125 15.1953125 C-0.95882646 18.35193573 -0.11028587 19.67868555 2 22 C0.02 22 -1.96 22 -4 22 C-6.85461954 16.38370202 -9.77532183 10.46101525 -9 4 C-5.95226158 0.42979214 -4.73599016 0 0 0 Z " fill="#F0F0F1" transform="translate(84,103)"/>
<path d="M0 0 C4.75 0.75 4.75 0.75 7 3 C7.265625 5.3125 7.265625 5.3125 7.25 8 C7.25515625 8.886875 7.2603125 9.77375 7.265625 10.6875 C7 13 7 13 5 15 C2.5 14.8125 2.5 14.8125 0 14 C-1.99825961 11.00261059 -2.27550398 10.36652492 -2.25 7 C-2.25515625 6.319375 -2.2603125 5.63875 -2.265625 4.9375 C-2 3 -2 3 0 0 Z " fill="#17171D" transform="translate(60,157)"/>
<path d="M0 0 C0.515625 0.2475 1.03125 0.495 1.5625 0.75 C2.1875 2.625 2.1875 2.625 2.5625 4.75 C0.5625 6.75 0.5625 6.75 -2.0390625 6.9453125 C-3.03679688 6.92210938 -4.03453125 6.89890625 -5.0625 6.875 C-6.56683594 6.84792969 -6.56683594 6.84792969 -8.1015625 6.8203125 C-8.87242188 6.79710938 -9.64328125 6.77390625 -10.4375 6.75 C-9.15564628 2.90443885 -7.65170223 2.32931973 -4.2265625 0.46875 C-2.4375 -0.25 -2.4375 -0.25 0 0 Z " fill="#1A1B22" transform="translate(58.4375,72.25)"/>
<path d="M0 0 C1.32 0 2.64 0 4 0 C4 2.97 4 5.94 4 9 C2.68 9 1.36 9 0 9 C0 8.01 0 7.02 0 6 C-1.32 6.33 -2.64 6.66 -4 7 C-4.33 5.35 -4.66 3.7 -5 2 C-4.01 2 -3.02 2 -2 2 C-1.34 1.34 -0.68 0.68 0 0 Z " fill="#8A826B" transform="translate(103,153)"/>
<path d="M0 0 C1.67542976 0.28604898 3.34385343 0.61781233 5 1 C4.67 2.65 4.34 4.3 4 6 C2.125 6.625 2.125 6.625 0 7 C-0.66 6.34 -1.32 5.68 -2 5 C-1.46428571 1.46428571 -1.46428571 1.46428571 0 0 Z " fill="#918970" transform="translate(80,142)"/>
<path d="M0 0 C1.67542976 0.28604898 3.34385343 0.61781233 5 1 C5 2.65 5 4.3 5 6 C3.34385343 6.38218767 1.67542976 6.71395102 0 7 C-1 6 -1 6 -1.125 3.5 C-1 1 -1 1 0 0 Z " fill="#90886F" transform="translate(149,142)"/>
</svg>
